<?xml version="1.0" encoding="UTF-8"?>
<!DOCTYPE svg PUBLIC "-//W3C//DTD SVG 1.1//EN" "http://www.w3.org/Graphics/SVG/1.1/DTD/svg11.dtd">
<!-- Creator: CorelDRAW 2017 -->
<svg xmlns="http://www.w3.org/2000/svg" xml:space="preserve" width="131.54mm" height="30.0314mm" version="1.1" style="shape-rendering:geometricPrecision; text-rendering:geometricPrecision; image-rendering:optimizeQuality; fill-rule:evenodd; clip-rule:evenodd"
viewBox="0 0 13026.25 2973.98"
 xmlns:xlink="http://www.w3.org/1999/xlink">
 <defs>
  <style type="text/css">
   <![CDATA[
    .fil0 {fill:#0054A5}
   ]]>
  </style>
 </defs>
 <g id="Слой_x0020_1">
  <metadata id="CorelCorpID_0Corel-Layer"/>
  <g id="_966256262864">
   <path class="fil0" d="M1981.57 1806.26c62.04,-133.19 96.89,-281.73 96.89,-438.23 0,-361.28 -184.37,-679.24 -464.11,-865.46 166.66,-171.5 346.69,-340.73 538.71,-502.56 -224.74,132.13 -436,283.92 -631.4,447.6 -144.18,-75.77 -308.25,-118.87 -482.34,-118.87 -574.04,0 -1039.32,465.28 -1039.32,1039.3 0,259.25 95.24,496.02 252.1,678.13 -199.02,430.12 -234.06,776.24 -58.64,893.1 187.82,125.31 596.24,-101.63 841.2,-471.29 0,0 -378.94,341.92 -587,263.46 -128.45,-48.59 -128.69,-244.43 -22.95,-525.41 172.12,126.39 384.54,201.15 614.62,201.15 284.58,0 542.4,-114.49 730.15,-299.74l36.92 69.45c453,-36.83 1805.57,-72.5 1805.57,-72.5 0,-65.22 -895.74,-6.36 -1630.39,-298.12l0 0zm-1692.09 162.23c-132.05,-164.62 -210.99,-373.34 -210.99,-600.46 0,-530.6 430.12,-960.79 960.83,-960.79 149.68,0 291.36,34.29 417.75,95.4 -531.57,460.38 -938.43,1004.43 -1167.59,1465.85l0 0zm1142.58 -494.13l298.65 560.36c-174.74,181.14 -419.82,294.23 -691.39,294.23 -220.03,0 -422.66,-74.29 -584.56,-198.49 176.99,-421.53 566.13,-1004.83 1104.19,-1570.29 265.29,170.94 441.05,468.73 441.05,807.87 0,145.97 -32.7,284.17 -90.93,407.96 -175.58,-76.54 -339.8,-174.85 -477.01,-301.63l0 0z"/>
   <path class="fil0" d="M7008.81 774.67c0,-79.41 -64.57,-143.96 -143.98,-143.96l-944.44 0c-161.78,0 -305.47,77.4 -396.01,197.28l-487.73 647.46c-18.1,24.02 -28.88,54.07 -28.88,86.55 0,79.39 64.39,143.92 143.91,143.92l944.48 0.08c161.79,0 305.43,-77.46 395.97,-197.4l487.89 -647.24c18.11,-24.15 28.79,-54.25 28.79,-86.68l0 0zm-2221.82 420c115.99,-26.18 216.42,-93.16 285.71,-184.97l111.78 -148.36c18.05,-24.15 28.84,-54.25 28.84,-86.68 0,-79.41 -64.46,-143.96 -143.87,-143.96l-604.02 -0.09 -587.68 0 -810.26 1075.3 577.35 0 655.91 0.08c161.78,0 305.47,-77.46 395.94,-197.4l114.22 -151.75c14.58,-19.18 23.13,-43.27 23.13,-69.36 0,-38.1 -18.52,-71.78 -47.05,-92.81l0 0zm-545.44 138.66l-72.7 96.46c-23.35,31.03 -60.69,51.29 -102.74,51.29l-241.31 0 156.33 -207.59 230.6 0c20.62,0 37.29,16.82 37.29,37.25 0,8.49 -2.73,16.38 -7.47,22.59l0 0zm3942.43 -59.84l169.46 -224.89 -590.01 -0.07 145.46 -192.94 589.93 0 169.54 -224.96 -1177.75 0 -810.09 1075.3 1177.79 0 169.37 -224.84 -589.77 0 156.06 -207.59 590.01 0 0 0zm-3627.54 -358.11l-61.77 82.15c-23.49,30.96 -60.74,51.06 -102.68,51.06l-241.45 -0.07 145.46 -192.94 230.66 0c20.56,0 37.28,16.77 37.28,37.34 0,8.42 -2.81,16.28 -7.5,22.45l0 0zm1795.38 0l-387.5 514.33c-23.42,31.11 -60.68,51.14 -102.61,51.14l-166.54 0c-20.51,0 -37.25,-16.71 -37.25,-37.28 0,-8.46 2.82,-16.32 7.43,-22.47l387.5 -514.29c23.51,-31.03 60.73,-51.22 102.67,-51.22l166.41 0c20.62,0 37.41,16.77 37.41,37.34 0,8.42 -2.83,16.28 -7.52,22.45l0 0zm6530.54 -284.67l-944.62 -0.16c-161.8,0 -305.33,77.56 -395.9,197.43l-487.66 647.46c-18.32,23.94 -29,54.07 -29,86.55 0,79.39 64.3,143.92 143.89,143.92l944.6 0c161.76,0 305.65,-77.38 396.01,-197.33l117.31 -155.62 136.33 0 170.63 -226.42 -723.6 0 -228.39 303.03c-23.46,31.24 -60.8,51.27 -102.68,51.27l-166.4 0c-20.76,0 -37.5,-16.71 -37.5,-37.36 0,-8.38 2.8,-16.24 7.56,-22.48l387.57 -514.27c23.31,-31.1 60.5,-51.15 102.5,-51.15l166.59 0c20.73,0 37.25,16.77 37.25,37.34 0,8.42 -2.81,16.28 -7.41,22.45l-62.97 83.56 587.27 0 103.67 -137.74c18.23,-24 28.84,-54.1 28.84,-86.53 0,-79.41 -64.46,-143.96 -143.89,-143.96l0 0zm-1921.95 0l-410.63 544.94 -126.06 -544.94 -459.51 0 -810.21 1075.21 388.98 0 406.97 -540.08 124.89 540.08 464.43 0 810.16 -1075.21 -388.99 0 0 0zm-1958.19 0l-810.31 1075.21 587.91 0 810.14 -1075.3 -587.74 0.09 0 0z"/>
  </g>
 </g>
</svg>
